<?xml version="1.0" standalone="no"?>
<!DOCTYPE svg PUBLIC "-//W3C//DTD SVG 20010904//EN"
 "http://www.w3.org/TR/2001/REC-SVG-20010904/DTD/svg10.dtd">
<svg version="1.0" xmlns="http://www.w3.org/2000/svg"
 width="1024.000000pt" height="1024.000000pt" viewBox="0 0 1024.000000 1024.000000"
 preserveAspectRatio="xMidYMid meet">

<g transform="translate(0.000000,1024.000000) scale(0.100000,-0.100000)"
fill="#000000" stroke="none">
<path d="M0 5120 l0 -5120 5120 0 5120 0 0 5120 0 5120 -5120 0 -5120 0 0
-5120z m5300 2515 c183 -36 353 -96 408 -143 12 -11 22 -22 22 -25 0 -3 -30
-10 -67 -17 -109 -19 -224 -50 -261 -69 -31 -16 -41 -16 -91 -5 -315 73 -689
-3 -961 -194 -84 -60 -245 -221 -299 -300 -64 -95 -128 -236 -158 -347 -21
-82 -27 -128 -31 -262 -4 -150 -2 -169 22 -265 44 -171 157 -372 267 -475 120
-112 200 -167 344 -238 220 -108 270 -120 485 -119 161 0 182 3 264 28 196 59
334 135 449 244 86 83 275 336 359 482 14 25 47 88 73 140 86 171 337 630 346
630 10 0 69 -85 69 -100 0 -7 -25 -39 -55 -73 -78 -86 -416 -594 -464 -698
-55 -117 -66 -259 -31 -387 11 -39 20 -75 20 -80 0 -8 -116 -106 -190 -160
-83 -61 -286 -161 -407 -202 -171 -57 -292 -74 -483 -67 -157 6 -192 12 -355
62 -258 79 -537 279 -709 508 -240 321 -316 761 -201 1160 76 260 287 543 546
729 169 121 407 219 611 252 117 19 359 15 478 -9z m1160 -422 c2 -2 -2 -15
-10 -28 -107 -171 -171 -291 -263 -495 -354 -789 -618 -1108 -1016 -1234 -134
-42 -247 -53 -364 -33 -53 9 -121 25 -150 36 -148 54 -177 67 -177 77 0 16 68
137 117 209 90 133 259 304 423 429 86 65 293 197 419 265 171 93 199 115 207
158 11 59 -2 68 -92 68 -145 -1 -386 -102 -634 -265 -156 -103 -259 -190 -374
-315 -120 -130 -276 -332 -277 -359 -1 -34 -57 96 -68 161 -17 92 -13 276 8
381 45 217 215 448 437 595 164 109 317 170 604 242 299 75 824 131 1100 118
58 -3 107 -7 110 -10z m174 -978 c293 -420 333 -504 324 -681 -3 -65 -9 -91
-37 -147 -61 -123 -130 -183 -246 -213 -64 -18 -117 -17 -183 0 -126 34 -222
109 -274 213 -25 51 -31 79 -35 150 -8 141 25 241 129 388 45 63 89 129 215
317 21 32 41 57 44 55 4 -1 32 -38 63 -82z m-3360 -847 c16 -23 21 -94 8 -115
-9 -15 -25 -15 -370 -14 l-293 1 -24 26 c-30 33 -32 63 -4 98 l20 26 324 0
c323 0 324 0 339 -22z m3406 -1333 l0 -515 -90 0 -90 0 0 38 c0 21 -3 41 -6
45 -3 3 -26 -10 -51 -29 -225 -172 -544 34 -543 351 0 85 21 153 69 223 67
100 149 150 258 159 62 5 77 2 130 -22 34 -15 74 -40 89 -56 15 -16 31 -29 36
-29 4 0 8 79 8 175 l0 175 95 0 95 0 0 -515z m-2427 475 c68 -21 166 -80 206
-123 l24 -27 -53 -57 c-29 -32 -59 -64 -66 -72 -11 -12 -20 -8 -61 21 -94 69
-130 83 -218 83 -67 0 -89 -4 -136 -27 -70 -35 -122 -87 -155 -155 -24 -49
-26 -61 -22 -150 3 -76 9 -108 27 -141 59 -114 145 -166 276 -166 66 0 90 4
136 26 80 37 99 58 99 113 l0 45 -125 0 -125 0 0 84 0 84 105 7 c119 8 300 3
312 -9 4 -4 8 -101 8 -214 l0 -207 -36 -18 c-20 -9 -85 -36 -145 -58 -178 -68
-325 -64 -475 12 -152 76 -231 222 -246 451 -7 119 7 201 50 283 62 117 173
199 309 230 81 19 225 12 311 -15z m-1725 -89 l-3 -93 -232 -2 -233 -1 0 -76
c0 -42 -3 -97 -6 -123 -7 -46 -7 -46 22 -44 16 1 118 1 227 0 l197 -2 0 -78 0
-79 -117 -5 c-65 -3 -164 -3 -220 1 -81 5 -104 3 -108 -7 -3 -8 -5 -58 -5
-111 l0 -98 83 -6 c45 -4 153 -7 240 -7 l157 0 0 -82 0 -83 -329 -2 -328 -3
-5 118 c-3 64 -2 288 0 497 l5 380 329 0 329 0 -3 -94z m5657 -131 c50 -21
117 -86 147 -142 22 -42 23 -53 26 -338 l3 -295 -100 -2 -100 -1 -3 261 c-3
228 -5 266 -21 294 -60 111 -273 68 -308 -62 -7 -25 -10 -122 -8 -265 l4 -225
-97 -3 -98 -3 0 396 0 395 90 0 90 0 0 -50 c0 -27 4 -50 8 -50 5 0 21 14 38
31 77 81 219 107 329 59z m-3111 -11 c91 -33 151 -95 178 -183 10 -33 21 -539
12 -569 -5 -15 -16 -17 -92 -14 l-87 3 3 37 c2 20 0 37 -4 37 -4 0 -28 -13
-53 -29 -168 -107 -392 -59 -445 96 -22 65 -20 101 10 161 31 63 66 93 141
123 51 21 75 24 202 24 l143 0 -5 48 c-5 55 -26 82 -82 108 -74 34 -218 17
-271 -31 l-23 -22 -33 37 c-18 21 -43 52 -55 68 -22 30 -22 31 -3 44 33 23
130 63 189 78 76 20 200 12 275 -16z m2244 -3 c133 -68 222 -225 222 -391 l0
-43 -163 -7 c-89 -4 -218 -6 -285 -4 -67 2 -122 0 -122 -4 0 -21 31 -75 56
-99 42 -40 101 -61 166 -60 65 1 105 18 141 62 32 37 39 37 69 3 13 -16 40
-42 60 -59 l36 -32 -60 -50 c-77 -64 -144 -86 -258 -86 -109 0 -197 34 -275
106 -82 74 -118 155 -123 273 -6 123 10 191 61 268 77 114 172 159 327 154 81
-3 103 -7 148 -31z m-4062 -18 c-13 -84 -44 -133 -250 -393 -53 -66 -96 -128
-96 -137 0 -30 30 -36 192 -39 86 -2 158 -6 161 -9 3 -3 7 -40 9 -82 l3 -77
-328 1 -328 2 7 45 c4 26 13 60 22 76 31 62 156 240 231 328 97 116 121 148
121 158 0 5 -77 9 -171 9 -158 0 -170 1 -165 18 3 9 7 45 8 80 l2 62 294 0
295 0 -7 -42z m2312 -20 c2 -32 7 -58 13 -58 5 0 23 15 40 34 47 54 121 86
196 86 72 0 69 7 57 -121 l-7 -66 -81 1 c-91 1 -136 -18 -178 -77 -22 -31 -23
-41 -26 -279 l-3 -248 -95 0 -94 0 0 396 0 395 88 -3 87 -3 3 -57z m-2050
-214 c8 -2 12 -30 12 -95 l0 -92 -52 7 c-29 3 -85 6 -124 6 l-71 0 -7 85 c-4
47 -5 89 -1 94 5 9 213 5 243 -5z m-40 -998 c27 -24 37 -69 20 -95 -7 -12 -29
-26 -48 -31 -20 -6 -188 -10 -382 -10 l-346 0 -31 25 c-16 14 -33 35 -36 46
-8 24 18 66 48 79 13 6 179 9 388 7 341 -2 368 -3 387 -21z m598 -9 c29 -34
31 -67 5 -98 -18 -23 -25 -24 -168 -27 -180 -4 -185 -2 -191 86 l-4 61 38 4
c22 2 97 4 167 3 128 -1 129 -1 153 -29z m543 16 c27 -22 37 -81 19 -106 -17
-22 -75 -36 -151 -37 -49 0 -62 4 -83 25 -21 21 -25 33 -22 72 4 57 12 61 134
62 64 1 86 -3 103 -16z m538 11 c33 -9 52 -77 32 -113 -17 -29 -56 -39 -157
-40 -54 -1 -66 3 -87 24 -29 28 -33 79 -9 113 14 20 23 22 107 22 51 0 102 -3
114 -6z m517 -10 c22 -21 22 -107 0 -125 -12 -10 -46 -14 -111 -14 -91 0 -95
1 -119 28 -31 36 -31 71 1 102 22 23 32 25 119 25 73 0 98 -4 110 -16z m696
-4 c5 -8 10 -34 10 -57 0 -33 -5 -46 -26 -62 -46 -36 -251 -27 -276 12 -14 22
-9 95 9 112 14 14 35 16 145 13 101 -2 131 -6 138 -18z m1140 -6 c39 -33 39
-77 -1 -107 -25 -18 -46 -19 -449 -20 l-423 0 -29 32 c-35 40 -35 55 1 92 l29
29 420 0 420 0 32 -26z"/>
<path d="M6426 5758 c-49 -76 -35 -206 30 -269 19 -18 34 -39 34 -46 0 -7 7
-13 15 -13 27 0 16 40 -25 83 -21 24 -44 56 -50 71 -10 26 -4 94 15 169 9 33
1 35 -19 5z"/>
<path d="M6243 4141 c-47 -12 -79 -36 -109 -81 -35 -53 -38 -152 -8 -220 23
-50 81 -106 120 -116 40 -10 122 3 159 26 85 52 116 235 55 321 -37 51 -147
87 -217 70z"/>
<path d="M4824 3843 c-59 -11 -77 -101 -29 -148 21 -21 33 -25 89 -25 80 0
111 11 159 58 31 31 37 43 37 79 l0 43 -117 -1 c-65 -1 -128 -4 -139 -6z"/>
<path d="M7075 4142 c-49 -23 -105 -85 -105 -116 0 -23 2 -23 143 -29 78 -4
165 -7 194 -7 l52 0 -9 31 c-25 86 -83 131 -179 136 -40 3 -68 -2 -96 -15z"/>
</g>
</svg>
